<svg width="180" height="82" viewBox="0 0 180 82" version="1.1" xmlns="http://www.w3.org/2000/svg" xmlns:xlink="http://www.w3.org/1999/xlink">
<title>LOGO</title>
<desc>Created using Figma</desc>
<g id="Canvas" transform="translate(-3088 -39)">
<g id="LOGO">
<g id="Logo">
<g id="Shape">
<use xlink:href="#path0_fill" transform="translate(3088 39)" fill="#FFFFFF"/>
</g>
</g>
<g id="Group">
<g id="City">
<g id="Vector">
<use xlink:href="#path1_fill" transform="translate(3181.33 62.2703)" fill="#FFFFFF"/>
</g>
<g id="Vector">
<use xlink:href="#path2_fill" transform="translate(3203.73 62.8282)" fill="#FFFFFF"/>
</g>
<g id="Vector">
<use xlink:href="#path3_fill" transform="translate(3208.97 62.8282)" fill="#FFFFFF"/>
</g>
<g id="Vector">
<use xlink:href="#path4_fill" transform="translate(3222.72 62.6887)" fill="#FFFFFF"/>
</g>
</g>
<g id="Forum">
<g id="Vector">
<use xlink:href="#path5_fill" transform="translate(3181.33 39.2679)" fill="#FFFFFF"/>
</g>
<g id="Vector">
<use xlink:href="#path6_fill" transform="translate(3192.88 39)" fill="#FFFFFF"/>
</g>
<g id="Vector">
<use xlink:href="#path7_fill" transform="translate(3215.97 39.2679)" fill="#FFFFFF"/>
</g>
<g id="Vector">
<use xlink:href="#path8_fill" transform="translate(3231.46 39.4008)" fill="#FFFFFF"/>
</g>
<g id="Vector">
<use xlink:href="#path9_fill" transform="translate(3247.35 39.2679)" fill="#FFFFFF"/>
</g>
</g>
</g>
</g>
</g>
<defs>
<path id="path0_fill" d="M 41.1111 1.43752e-08C 18.3791 1.43752e-08 0 18.45 0 41C 0 63.6706 18.5 82 41.1111 82C 63.8431 82 82.2222 63.55 82.2222 41C 82.2222 18.45 63.7222 1.43752e-08 41.1111 1.43752e-08ZM 65.0523 9.88824C 64.8105 12.6618 64.3268 14.4706 63.2386 15.6765C 63.2386 15.7971 61.7876 17.2441 58.7647 17.3647C 58.281 17.3647 57.6765 17.3647 57.0719 17.3647C 56.1046 17.3647 55.2582 17.3647 54.2909 17.2441C 53.2026 12.5412 52.1144 7.47647 51.6307 3.13529C 56.4673 4.58235 61.0621 6.87353 65.0523 9.88824ZM 74.1209 57.4C 71.098 55.9529 68.1961 54.8676 65.2941 54.3853C 65.2941 54.3853 64.6895 54.2647 63.8431 54.2647C 61.9085 54.2647 58.402 54.7471 55.5 57.7618C 53.5654 59.8118 52.3562 62.5853 51.7516 66.0824C 51.0261 65.6 50.3007 65.1177 49.4543 64.6353L 49.2124 64.5147C 46.0686 62.7059 41.3529 59.9324 35.549 59.0882C 35.549 58.7265 35.549 58.3647 35.6699 58.0029C 36.7582 52.3353 38.3301 48.1147 39.902 44.8588C 40.6274 44.9794 41.232 45.1 41.8366 45.1C 50.4216 45.1 51.0261 29.3029 51.1471 28.7C 51.1471 28.5794 51.1471 28.2176 51.268 27.6147C 52.598 26.65 53.8072 26.1676 55.1373 26.0471C 55.6209 27.8559 56.1046 29.4235 56.4673 30.6294C 56.951 32.1971 57.3137 33.5235 57.6765 34.6088C 59.4902 39.3118 62.634 42.5676 67.1078 44.3765C 67.4706 44.4971 67.9542 44.7382 68.4379 44.8588C 69.4052 45.2206 70.4935 45.7029 71.8235 46.1853C 73.1536 49.6824 74.4837 54.1441 74.1209 57.4ZM 31.9216 59.45C 30.8333 58.1235 29.3824 57.1588 27.5686 56.5559C 25.9967 55.9529 23.3366 55.4706 20.7974 55.2294C 20.4346 49.9235 19.8301 46.4265 18.6209 41.3618C 18.1373 39.1912 17.1699 36.9 15.8399 34.7294C 17.8954 33.1618 19.5882 31.2324 21.0392 29.0618C 23.5784 32.4382 25.8758 34.6088 27.8105 36.4176L 27.9314 36.5382C 33.6144 41.8441 38.0882 44.0147 38.3301 44.1353C 38.5719 44.2559 38.8137 44.3765 39.0556 44.3765C 37.4837 47.7529 35.9118 51.9735 34.8235 57.6412C 34.7026 58.1235 34.7026 58.4853 34.7026 58.8471C 33.8562 59.0882 33.0098 59.2088 31.9216 59.45ZM 26.8431 14.5912C 28.6569 13.8676 30.2288 13.3853 31.4379 13.1441C 33.4935 14.1088 36.2745 15.0735 40.0229 15.9176C 40.2647 16.0382 44.8595 17.1235 49.9379 17.9676C 50.4216 21.2235 50.3007 24.9618 50.1797 27.0118C 49.817 27.2529 49.4543 27.6147 49.2124 27.9765C 49.0915 28.2176 44.8595 32.5588 40.6274 41L 40.6274 41.1206C 40.2647 41.8441 39.781 42.6882 39.4183 43.6529C 39.1765 43.5324 38.9346 43.5324 38.6928 43.4118C 38.6928 43.4118 34.098 41.1206 28.6569 36.0559L 28.5359 35.9353C 26.6013 33.8853 24.183 31.5941 21.6438 28.2176C 24.3039 23.9971 25.8758 19.1735 26.8431 14.5912ZM 20.9183 27.1324C 20.4346 26.4088 19.8301 25.5647 19.2255 24.6C 18.2582 23.0324 18.1373 21.5853 18.7418 20.2588C 19.7092 18.0882 22.4902 16.2794 25.3922 15.0735C 24.5458 19.1735 23.0948 23.5147 20.9183 27.1324ZM 33.2516 12.6618C 33.9771 12.4206 38.0882 11.3353 42.0784 11.3353C 43.6503 11.3353 45.1013 11.5765 46.1895 11.9382C 46.6732 12.0588 47.2778 12.4206 47.6405 12.7824C 48.6078 13.6265 49.3333 15.0735 49.6961 16.8824C 44.7386 16.1588 40.3856 14.9529 40.2647 14.9529C 37.3627 14.1088 35.0654 13.3853 33.2516 12.6618ZM 50.0588 28.5794C 50.0588 29.1824 49.3333 43.8941 41.9575 43.8941C 41.4739 43.8941 40.9902 43.7735 40.5065 43.6529C 40.8693 42.8088 41.232 42.0853 41.5948 41.3618L 41.5948 41.2412C 45.7059 33.1618 49.9379 28.7 50.0588 28.5794C 50.0588 28.7 50.0588 28.7 50.0588 28.5794ZM 73.8791 58.4853C 73.7582 58.9676 73.6373 59.45 73.3954 59.8118C 73.1536 60.2941 72.549 61.0177 72.0654 61.3794C 67.2288 65.2382 56.951 65.9618 56.7092 65.9618C 56.7092 65.9618 55.1373 66.2029 52.8399 66.3235C 53.4444 62.9471 54.5327 60.2941 56.3464 58.3647C 58.8856 55.7118 62.1503 55.2294 63.8431 55.2294C 64.5686 55.2294 65.0523 55.35 65.0523 55.35C 67.9542 55.9529 70.8562 57.0382 73.8791 58.4853ZM 50.4216 66.5647C 50.0588 66.5647 49.817 66.5647 49.4543 66.5647C 45.1013 66.5647 39.4183 65.9618 36.8791 63.0676C 36.2745 62.2235 35.7908 61.3794 35.6699 60.2941C 41.1111 61.1382 45.4641 63.6706 48.6078 65.4794L 48.8497 65.6C 49.4543 65.9618 49.9379 66.2029 50.4216 66.5647ZM 68.9216 43.7735C 68.4379 43.5324 68.0752 43.4118 67.5915 43.1706C 63.4804 41.4824 60.4575 38.3471 58.7647 34.0059C 58.402 32.9206 57.9183 31.7147 57.5556 30.1471C 57.1928 29.0618 56.8301 27.6147 56.3464 25.9265C 63.6013 26.8912 69.1634 40.2765 69.2843 40.5177C 69.2843 40.5177 70.1307 42.3265 71.098 44.7382C 70.3726 44.4971 69.6471 44.1353 68.9216 43.7735ZM 51.3889 26.1676C 51.5098 23.9971 51.5098 20.9824 51.1471 18.0882C 51.8725 18.2088 52.598 18.2088 53.3235 18.3294C 53.9281 20.6206 54.4118 22.9118 55.0163 24.9618C 53.8072 24.9618 52.598 25.4441 51.3889 26.1676ZM 28.2941 3.85882C 32.2843 2.53235 36.6373 1.68824 41.1111 1.68824C 44.2549 1.68824 47.3987 2.05 50.3007 2.77353C 50.7843 7.11471 51.8725 12.3 52.9608 17.1235C 52.2353 17.0029 51.6307 17.0029 50.9052 16.8824C 50.4216 14.7118 49.6961 12.7824 48.366 11.6971C 47.8824 11.3353 47.1569 10.8529 46.5523 10.7324C 45.3431 10.3706 43.8922 10.1294 42.0784 10.1294C 37.6046 10.1294 33.0098 11.4559 32.768 11.4559C 32.6471 11.4559 32.1634 11.5765 31.4379 11.8176C 29.3824 10.8529 28.1732 10.0088 27.5686 9.40588C 27.9314 7.35588 28.1732 5.54706 28.2941 3.85882ZM 29.866 12.3C 29.0196 12.5412 28.0523 12.9029 27.085 13.2647C 27.2059 12.4206 27.3268 11.5765 27.5686 10.8529C 28.0523 11.2147 28.8987 11.6971 29.866 12.3ZM 27.085 4.34118C 26.9641 5.54706 26.8431 6.87353 26.7222 8.32059L 26.4804 8.07941C 25.9967 7.35588 25.5131 6.39118 25.1503 5.18529C 25.7549 4.82353 26.3595 4.58235 27.085 4.34118ZM 24.0621 5.54706C 24.4248 6.75294 24.9085 7.83823 25.5131 8.68235L 26.1176 9.52647C 26.1176 9.52647 26.2386 9.64706 26.4804 9.88824C 26.3595 11.0941 26.1176 12.4206 25.7549 13.7471C 22.4902 15.0735 18.9837 17.1235 17.7745 19.8971C 17.049 21.5853 17.1699 23.3941 18.2582 25.3235C 18.8627 26.4088 19.5882 27.3735 20.1928 28.3382C 18.7418 30.5088 17.1699 32.4382 15.1144 34.0059C 12.6961 30.2676 9.06863 27.0118 4.71569 25.8059C 8.58497 16.8824 15.4771 9.76765 24.0621 5.54706ZM 4.35294 26.65C 8.58497 27.8559 11.9706 30.8706 14.268 34.4882C 11.2451 36.5382 7.61765 37.7441 3.14379 37.7441L 2.90196 37.7441C 2.4183 37.7441 2.05556 37.7441 1.69281 37.7441C 2.17647 33.8853 3.02288 30.1471 4.35294 26.65ZM 1.69281 41.1206C 1.69281 40.3971 1.69281 39.6735 1.81373 38.95C 2.17647 38.95 2.66013 38.95 3.14379 38.95L 3.38562 38.95C 8.10131 38.95 11.9706 37.6235 15.1144 35.5735C 16.3235 37.6235 17.1699 39.7941 17.6536 41.7235C 18.8627 46.7882 19.4673 50.1647 19.8301 55.2294C 19.2255 55.2294 18.7418 55.2294 18.2582 55.2294C 17.8954 55.2294 17.5327 55.2294 17.1699 55.2294C 12.0915 55.5912 8.34314 56.6765 5.92484 58.6059C 3.14379 53.3 1.69281 47.3912 1.69281 41.1206ZM 6.28758 59.5706C 8.46405 57.6412 12.0915 56.5559 17.049 56.1941C 17.4118 56.1941 17.6536 56.1941 18.0163 56.1941C 18.5 56.1941 19.1046 56.1941 19.7091 56.1941C 19.7091 57.0382 19.8301 57.8824 19.8301 58.7265C 19.8301 60.2941 19.4673 61.5 18.7418 62.3441C 17.6536 63.4294 15.719 63.9118 12.6961 63.9118C 11.6078 63.9118 10.3987 63.7912 8.94771 63.6706C 7.98039 62.4647 7.13399 61.1382 6.28758 59.5706ZM 9.91503 65.1176C 11.0033 65.2382 11.9706 65.2382 12.817 65.2382C 16.2026 65.2382 18.3791 64.6353 19.5882 63.3088C 20.5556 62.2235 21.0392 60.7765 21.0392 58.8471C 21.0392 58.0029 20.9183 57.1588 20.9183 56.4353C 23.3366 56.6765 25.8758 57.1588 27.2059 57.6412C 28.6569 58.1235 29.866 58.9676 30.8333 59.9324C 29.7451 60.4147 28.6569 61.1382 27.6895 62.1029C 25.1503 64.9971 24.0621 69.5794 24.6667 75.7294C 24.6667 75.7294 24.6667 76.2118 24.7876 76.9353C 18.9837 74.2823 13.7843 70.1824 9.91503 65.1176ZM 25.9967 77.4176C 25.8758 76.3324 25.8758 75.6088 25.8758 75.6088C 25.2712 69.8206 26.2386 65.4794 28.5359 62.9471C 29.5033 61.8618 30.5915 61.2588 31.5588 60.8971C 31.8007 61.3794 32.1634 61.8618 32.2843 62.3441C 34.219 67.0471 31.9216 73.8 29.6242 78.7441C 28.415 78.3823 27.2059 77.9 25.9967 77.4176ZM 41.1111 80.4324C 37.6046 80.4324 34.098 79.95 30.8333 79.1059C 33.2516 73.9206 35.549 66.9265 33.4935 61.8618C 33.2516 61.3794 33.0098 60.8971 32.768 60.5353C 33.4935 60.2941 34.098 60.2941 34.5817 60.2941C 34.7026 61.6206 35.1863 62.8265 36.0327 63.7912C 38.2091 66.4441 42.8039 67.7706 49.4543 67.7706C 50.1797 67.7706 50.9052 67.7706 51.5098 67.7706C 51.268 69.5794 51.268 71.5088 51.3889 73.6794C 51.3889 73.6794 51.3889 75.85 51.7516 79.1059C 48.2451 79.8294 44.7386 80.4324 41.1111 80.4324ZM 52.8399 78.6235C 52.598 75.4882 52.598 73.5588 52.598 73.5588C 52.4771 71.5088 52.598 69.7 52.719 68.0118C 56.3464 70.6647 58.402 72.9559 59.732 74.7647C 59.9739 75.0059 60.0948 75.2471 60.3366 75.4882C 57.7974 76.8147 55.3791 77.7794 52.8399 78.6235ZM 61.183 74.8853C 60.9412 74.6441 60.8203 74.2824 60.5784 74.0412C 59.2484 72.2324 57.3137 70.0618 53.9281 67.5294C 55.7418 67.4088 56.951 67.1676 56.951 67.1676C 57.4346 67.1676 67.7124 66.3235 72.7908 62.3441C 73.5163 61.8618 74.1209 61.0177 74.4837 60.4147C 74.7255 60.0529 74.9673 59.5706 75.0882 59.0882C 75.3301 59.2088 75.6928 59.45 75.9346 59.5706C 72.4281 65.9618 67.3497 71.2676 61.183 74.8853ZM 76.4183 58.4853C 76.0556 58.2441 75.6928 58.0029 75.2092 57.8824C 75.6928 54.6265 74.4837 50.2853 73.1536 46.6676C 75.2092 47.2706 77.3856 47.7529 79.8039 47.8735C 79.1993 51.6118 77.9902 55.2294 76.4183 58.4853ZM 72.6699 45.3412C 71.5817 42.4471 70.4935 40.3971 70.3726 40.1559C 70.1307 39.5529 64.2059 25.4441 56.1046 24.9618C 55.6209 23.0324 55.0163 20.8618 54.4118 18.45C 55.2582 18.45 56.1046 18.5706 56.951 18.5706C 57.5556 18.5706 58.1601 18.5706 58.7647 18.5706C 62.3922 18.45 64.085 16.6412 64.085 16.5206C 65.1732 15.3147 65.7778 13.3853 66.1405 10.8529C 74.9673 18.0882 80.5294 28.9412 80.5294 41.2412C 80.5294 43.1706 80.4085 45.1 80.1667 46.9088C 77.3856 46.6676 74.8464 46.0647 72.6699 45.3412Z"/>
<path id="path1_fill" d="M 18.7075 16.1799C 16.7234 18.6906 13.8889 19.9459 10.3458 19.9459C 6.94444 19.9459 4.39342 18.8301 2.4093 16.5984C 0.85034 14.7851 0 12.5534 0 9.90323C 0 7.11359 0.992063 4.74239 2.97619 2.78964C 4.96032 0.976375 7.36962 2.07845e-09 10.3458 2.07845e-09C 14.0306 2.07845e-09 16.7234 1.25534 18.7075 3.9055L 17.1485 5.02136C 15.4478 2.92913 13.1803 1.81327 10.3458 1.81327C 8.78685 1.81327 7.51134 2.23171 6.23583 2.92913C 4.96032 3.62654 3.82653 4.60291 3.11791 5.85825C 2.4093 7.11359 1.98413 8.50841 1.98413 10.0427C 1.98413 12.4139 2.83447 14.3667 4.39342 15.901C 5.95238 17.4353 7.93651 18.1327 10.3458 18.1327C 13.0385 18.1327 15.3061 17.1563 17.1485 15.0641L 18.7075 16.1799Z"/>
<path id="path2_fill" d="M 1.8424 18.8301L 2.70316e-07 18.8301L 2.70316e-07 0L 1.8424 0L 1.8424 18.8301Z"/>
<path id="path3_fill" d="M 10.4875 1.81327L 6.23583 1.81327L 6.23583 18.8301L 4.2517 18.8301L 4.2517 1.81327L 0 1.81327L 0 0L 10.4875 0L 10.4875 1.81327Z"/>
<path id="path4_fill" d="M 14.1723 0.139482L 8.07823 10.0427L 8.07823 18.9696L 6.23583 18.9696L 6.23583 9.90323L 1.08126e-06 8.31378e-09L 2.26757 8.31378e-09L 7.22789 7.811L 12.0465 8.31378e-09L 14.1723 8.31378e-09L 14.1723 0.139482Z"/>
<path id="path5_fill" d="M 9.2372 9.21852L 1.90178 9.21852L 1.90178 18.0362L 0 18.0362L 0 3.98164e-09L 9.2372 3.98164e-09L 9.2372 1.73682L 1.90178 1.73682L 1.90178 7.34809L 9.2372 7.34809L 9.2372 9.21852Z"/>
<path id="path6_fill" d="M 19.4253 9.35212C 19.4253 12.0242 18.4744 14.2954 16.5726 16.0322C 14.6708 17.9026 12.4974 18.8378 9.78056 18.8378C 7.06374 18.8378 4.75444 17.9026 2.85267 16.1658C 0.950889 14.2954 0 12.1578 0 9.48572C 0 7.7489 0.407523 6.14568 1.22257 4.67606C 2.03762 3.20644 3.26019 2.00403 4.75444 1.20242C 6.24869 0.400805 7.87879 0 9.50888 0C 12.2257 0 14.535 0.935212 16.4368 2.67203C 18.4744 4.27525 19.4253 6.54648 19.4253 9.35212ZM 17.5235 9.35212C 17.5235 6.41288 16.1651 4.14165 13.5841 2.67203C 12.3615 2.00403 11.0031 1.60322 9.64472 1.60322C 8.28631 1.60322 6.9279 2.00403 5.70533 2.67203C 4.48276 3.34004 3.53187 4.27525 2.85267 5.47767C 2.17346 6.68008 1.76594 8.0161 1.76594 9.35212C 1.76594 11.4897 2.44514 13.2266 3.93939 14.8298C 5.43365 16.2994 7.19958 17.101 9.37304 17.101C 10.7315 17.101 12.0899 16.8338 13.3124 16.0322C 14.535 15.3642 15.4859 14.429 16.1651 13.2266C 17.116 12.0242 17.5235 10.6881 17.5235 9.35212Z"/>
<path id="path7_fill" d="M 11.8182 18.0362L 9.50888 18.0362L 2.85266 9.61932L 1.76593 9.61932L 1.76593 18.0362L 0 18.0362L 0 3.98164e-09L 3.66771 3.98164e-09C 5.70533 3.98164e-09 7.06374 0.133602 7.74295 0.267203C 8.82968 0.534407 9.78057 1.06881 10.4598 1.87042C 11.139 2.67203 11.4107 3.60725 11.4107 4.80966C 11.4107 6.81369 10.4598 8.2833 8.69383 9.08491C 7.87879 9.48572 6.65622 9.61932 5.02612 9.61932L 11.8182 18.0362ZM 9.64472 4.80966C 9.64472 4.27525 9.50888 3.60724 9.10136 3.20644C 8.82968 2.67203 8.28631 2.40483 7.74295 2.13763C 7.19958 1.87042 6.24869 1.87042 5.02612 1.87042L 1.76593 1.87042L 1.76593 8.0161L 4.89028 8.0161C 6.9279 8.0161 8.28631 7.6153 8.96552 6.54648C 9.50888 6.01208 9.64472 5.47767 9.64472 4.80966Z"/>
<path id="path8_fill" d="M 12.0209 10.8217C 12.0209 12.2914 12.0899 13.4938 11.8182 14.429C 11.4107 15.6314 10.7314 16.5666 9.78056 17.3682C 8.82967 18.1698 7.6071 18.437 6.24869 18.437C 4.89028 18.437 3.66771 18.1698 2.58098 17.5018C 1.49425 16.8338 0.679202 15.8986 0.271678 14.6962C -4.13921e-06 14.0282 3.84294e-15 12.6922 3.84294e-15 10.9553L 3.84294e-15 0L 1.76593 0L 1.76593 10.8217C 1.76593 12.0242 1.76593 12.8258 1.90177 13.2266C 2.03761 14.6962 2.85266 15.6314 4.07524 16.1658C 4.75444 16.433 5.43365 16.7002 6.11285 16.7002C 7.47127 16.7002 8.42215 16.1658 9.2372 15.2306C 9.64472 14.8298 9.9164 14.2954 10.0522 13.6274C 10.1881 13.2266 10.1881 12.2914 10.1881 10.8217L 10.1881 0L 11.954 0L 12.0209 10.8217Z"/>
<path id="path9_fill" d="M 20.6479 18.0362L 18.8819 18.0362L 17.116 5.07686L 10.5956 18.0362L 10.0522 18.0362L 3.53187 5.07686L 1.76594 18.0362L -2.07277e-06 18.0362L 2.58098 3.98164e-09L 2.85267 3.98164e-09L 10.3239 14.8298L 17.6593 3.98164e-09L 17.931 3.98164e-09L 20.6479 18.0362Z"/>
</defs>
</svg>
