<svg width="180" height="83" viewBox="0 0 180 83" version="1.1" xmlns="http://www.w3.org/2000/svg" xmlns:xlink="http://www.w3.org/1999/xlink">
<title>LOGO</title>
<desc>Created using Figma</desc>
<g id="Canvas" transform="translate(-3089 -4374)">
<g id="main 1.3" clip-path="url(#clip-0)">
<g id="footer">
<g id="LOGO">
<g id="Logo">
<g id="Shape">
<use xlink:href="#path1_fill" transform="translate(3089 4374)" fill="#333333"/>
</g>
</g>
<g id="Group">
<g id="City">
<g id="Vector">
<use xlink:href="#path2_fill" transform="translate(3182.33 4397.33)" fill="#333333"/>
</g>
<g id="Vector">
<use xlink:href="#path3_fill" transform="translate(3204.73 4397.89)" fill="#333333"/>
</g>
<g id="Vector">
<use xlink:href="#path4_fill" transform="translate(3209.97 4397.89)" fill="#333333"/>
</g>
<g id="Vector">
<use xlink:href="#path5_fill" transform="translate(3223.72 4397.75)" fill="#333333"/>
</g>
</g>
<g id="Forum">
<g id="Vector">
<use xlink:href="#path6_fill" transform="translate(3182.33 4374.27)" fill="#333333"/>
</g>
<g id="Vector">
<use xlink:href="#path7_fill" transform="translate(3193.88 4374)" fill="#333333"/>
</g>
<g id="Vector">
<use xlink:href="#path8_fill" transform="translate(3216.97 4374.27)" fill="#333333"/>
</g>
<g id="Vector">
<use xlink:href="#path9_fill" transform="translate(3232.46 4374.4)" fill="#333333"/>
</g>
<g id="Vector">
<use xlink:href="#path10_fill" transform="translate(3248.35 4374.27)" fill="#333333"/>
</g>
</g>
</g>
</g>
</g>
</g>
</g>
<defs>
<path id="path0_fill" d="M 0 0L 1920 0L 1920 283L 0 283L 0 0Z"/>
<path id="path1_fill" d="M 41.1111 1.44142e-08C 18.3791 1.44142e-08 0 18.5 0 41.1111C 0 63.8431 18.5 82.2222 41.1111 82.2222C 63.8431 82.2222 82.2222 63.7222 82.2222 41.1111C 82.2222 18.5 63.7222 1.44142e-08 41.1111 1.44142e-08ZM 65.0523 9.91503C 64.8105 12.6961 64.3268 14.5098 63.2386 15.719C 63.2386 15.8399 61.7876 17.2908 58.7647 17.4118C 58.281 17.4118 57.6765 17.4118 57.0719 17.4118C 56.1046 17.4118 55.2582 17.4118 54.2909 17.2908C 53.2026 12.5752 52.1144 7.49673 51.6307 3.14379C 56.4673 4.59477 61.0621 6.89216 65.0523 9.91503ZM 74.1209 57.5556C 71.098 56.1046 68.1961 55.0163 65.2941 54.5327C 65.2941 54.5327 64.6895 54.4118 63.8431 54.4118C 61.9085 54.4118 58.402 54.8954 55.5 57.9183C 53.5654 59.9739 52.3562 62.7549 51.7516 66.2614C 51.0261 65.7778 50.3007 65.2941 49.4543 64.8105L 49.2124 64.6895C 46.0686 62.8758 41.3529 60.0948 35.549 59.2484C 35.549 58.8856 35.549 58.5229 35.6699 58.1601C 36.7582 52.4771 38.3301 48.2451 39.902 44.9804C 40.6274 45.1013 41.232 45.2222 41.8366 45.2222C 50.4216 45.2222 51.0261 29.3824 51.1471 28.7778C 51.1471 28.6569 51.1471 28.2941 51.268 27.6895C 52.598 26.7222 53.8072 26.2386 55.1373 26.1176C 55.6209 27.9314 56.1046 29.5033 56.4673 30.7124C 56.951 32.2843 57.3137 33.6144 57.6765 34.7026C 59.4902 39.4183 62.634 42.683 67.1078 44.4967C 67.4706 44.6176 67.9542 44.8595 68.4379 44.9804C 69.4052 45.3431 70.4935 45.8268 71.8235 46.3105C 73.1536 49.817 74.4837 54.2909 74.1209 57.5556ZM 31.9216 59.6111C 30.8333 58.281 29.3824 57.3137 27.5686 56.7092C 25.9967 56.1046 23.3366 55.6209 20.7974 55.3791C 20.4346 50.0588 19.8301 46.5523 18.6209 41.4739C 18.1373 39.2974 17.1699 37 15.8399 34.8235C 17.8954 33.2516 19.5882 31.317 21.0392 29.1405C 23.5784 32.5261 25.8758 34.7026 27.8105 36.5163L 27.9314 36.6373C 33.6144 41.9575 38.0882 44.134 38.3301 44.2549C 38.5719 44.3758 38.8137 44.4967 39.0556 44.4967C 37.4837 47.8824 35.9118 52.1144 34.8235 57.7974C 34.7026 58.281 34.7026 58.6438 34.7026 59.0065C 33.8562 59.2484 33.0098 59.3693 31.9216 59.6111ZM 26.8431 14.6307C 28.6569 13.9052 30.2288 13.4216 31.4379 13.1797C 33.4935 14.1471 36.2745 15.1144 40.0229 15.9608C 40.2647 16.0817 44.8595 17.1699 49.9379 18.0163C 50.4216 21.281 50.3007 25.0294 50.1797 27.085C 49.817 27.3268 49.4543 27.6895 49.2124 28.0523C 49.0915 28.2941 44.8595 32.6471 40.6274 41.1111L 40.6274 41.232C 40.2647 41.9575 39.781 42.8039 39.4183 43.7712C 39.1765 43.6503 38.9346 43.6503 38.6928 43.5294C 38.6928 43.5294 34.098 41.232 28.6569 36.1536L 28.5359 36.0327C 26.6013 33.9771 24.183 31.6797 21.6438 28.2941C 24.3039 24.0621 25.8758 19.2255 26.8431 14.6307ZM 20.9183 27.2059C 20.4346 26.4804 19.8301 25.634 19.2255 24.6667C 18.2582 23.0948 18.1373 21.6438 18.7418 20.3137C 19.7092 18.1373 22.4902 16.3235 25.3922 15.1144C 24.5458 19.2255 23.0948 23.5784 20.9183 27.2059ZM 33.2516 12.6961C 33.9771 12.4542 38.0882 11.366 42.0784 11.366C 43.6503 11.366 45.1013 11.6078 46.1895 11.9706C 46.6732 12.0915 47.2778 12.4542 47.6405 12.817C 48.6078 13.6634 49.3333 15.1144 49.6961 16.9281C 44.7386 16.2026 40.3856 14.9935 40.2647 14.9935C 37.3627 14.1471 35.0654 13.4216 33.2516 12.6961ZM 50.0588 28.6569C 50.0588 29.2614 49.3333 44.0131 41.9575 44.0131C 41.4739 44.0131 40.9902 43.8922 40.5065 43.7712C 40.8693 42.9248 41.232 42.1993 41.5948 41.4739L 41.5948 41.3529C 45.7059 33.2516 49.9379 28.7778 50.0588 28.6569C 50.0588 28.7778 50.0588 28.7778 50.0588 28.6569ZM 73.8791 58.6438C 73.7582 59.1274 73.6373 59.6111 73.3954 59.9739C 73.1536 60.4575 72.549 61.183 72.0654 61.5458C 67.2288 65.415 56.951 66.1405 56.7092 66.1405C 56.7092 66.1405 55.1373 66.3824 52.8399 66.5033C 53.4444 63.1176 54.5327 60.4575 56.3464 58.5229C 58.8856 55.8627 62.1503 55.3791 63.8431 55.3791C 64.5686 55.3791 65.0523 55.5 65.0523 55.5C 67.9542 56.1046 70.8562 57.1928 73.8791 58.6438ZM 50.4216 66.7451C 50.0588 66.7451 49.817 66.7451 49.4543 66.7451C 45.1013 66.7451 39.4183 66.1405 36.8791 63.2386C 36.2745 62.3922 35.7908 61.5457 35.6699 60.4575C 41.1111 61.3039 45.4641 63.8431 48.6078 65.6569L 48.8497 65.7778C 49.4543 66.1405 49.9379 66.3824 50.4216 66.7451ZM 68.9216 43.8922C 68.4379 43.6503 68.0752 43.5294 67.5915 43.2876C 63.4804 41.5948 60.4575 38.451 58.7647 34.098C 58.402 33.0098 57.9183 31.8007 57.5556 30.2288C 57.1928 29.1405 56.8301 27.6895 56.3464 25.9967C 63.6013 26.9641 69.1634 40.3856 69.2843 40.6275C 69.2843 40.6275 70.1307 42.4412 71.098 44.8595C 70.3726 44.6176 69.6471 44.2549 68.9216 43.8922ZM 51.3889 26.2386C 51.5098 24.0621 51.5098 21.0392 51.1471 18.1373C 51.8725 18.2582 52.598 18.2582 53.3235 18.3791C 53.9281 20.6765 54.4118 22.9739 55.0163 25.0294C 53.8072 25.0294 52.598 25.5131 51.3889 26.2386ZM 28.2941 3.86928C 32.2843 2.53922 36.6373 1.69281 41.1111 1.69281C 44.2549 1.69281 47.3987 2.05556 50.3007 2.78105C 50.7843 7.13399 51.8725 12.3333 52.9608 17.1699C 52.2353 17.049 51.6307 17.049 50.9052 16.9281C 50.4216 14.7516 49.6961 12.817 48.366 11.7288C 47.8824 11.366 47.1569 10.8824 46.5523 10.7614C 45.3431 10.3987 43.8922 10.1569 42.0784 10.1569C 37.6046 10.1569 33.0098 11.4869 32.768 11.4869C 32.6471 11.4869 32.1634 11.6078 31.4379 11.8497C 29.3824 10.8824 28.1732 10.0359 27.5686 9.43137C 27.9314 7.37582 28.1732 5.56209 28.2941 3.86928ZM 29.866 12.3333C 29.0196 12.5752 28.0523 12.9379 27.085 13.3007C 27.2059 12.4542 27.3268 11.6078 27.5686 10.8824C 28.0523 11.2451 28.8987 11.7288 29.866 12.3333ZM 27.085 4.35294C 26.9641 5.56209 26.8431 6.89216 26.7222 8.34314L 26.4804 8.10131C 25.9967 7.37582 25.5131 6.4085 25.1503 5.19935C 25.7549 4.8366 26.3595 4.59477 27.085 4.35294ZM 24.0621 5.56209C 24.4248 6.77124 24.9085 7.85948 25.5131 8.70588L 26.1176 9.55229C 26.1176 9.55229 26.2386 9.6732 26.4804 9.91503C 26.3595 11.1242 26.1176 12.4542 25.7549 13.7843C 22.4902 15.1144 18.9837 17.1699 17.7745 19.951C 17.049 21.6438 17.1699 23.4575 18.2582 25.3922C 18.8627 26.4804 19.5882 27.4477 20.1928 28.415C 18.7418 30.5915 17.1699 32.5261 15.1144 34.098C 12.6961 30.3497 9.06863 27.085 4.71569 25.8758C 8.58497 16.9281 15.4771 9.79412 24.0621 5.56209ZM 4.35294 26.7222C 8.58497 27.9314 11.9706 30.9542 14.268 34.5817C 11.2451 36.6373 7.61765 37.8464 3.14379 37.8464L 2.90196 37.8464C 2.4183 37.8464 2.05556 37.8464 1.69281 37.8464C 2.17647 33.9771 3.02288 30.2288 4.35294 26.7222ZM 1.69281 41.232C 1.69281 40.5065 1.69281 39.781 1.81373 39.0556C 2.17647 39.0556 2.66013 39.0556 3.14379 39.0556L 3.38562 39.0556C 8.10131 39.0556 11.9706 37.7255 15.1144 35.6699C 16.3235 37.7255 17.1699 39.902 17.6536 41.8366C 18.8627 46.915 19.4673 50.3007 19.8301 55.3791C 19.2255 55.3791 18.7418 55.3791 18.2582 55.3791C 17.8954 55.3791 17.5327 55.3791 17.1699 55.3791C 12.0915 55.7418 8.34314 56.8301 5.92484 58.7647C 3.14379 53.4444 1.69281 47.5196 1.69281 41.232ZM 6.28758 59.732C 8.46405 57.7974 12.0915 56.7092 17.049 56.3464C 17.4118 56.3464 17.6536 56.3464 18.0163 56.3464C 18.5 56.3464 19.1046 56.3464 19.7091 56.3464C 19.7091 57.1928 19.8301 58.0392 19.8301 58.8856C 19.8301 60.4575 19.4673 61.6667 18.7418 62.5131C 17.6536 63.6013 15.719 64.085 12.6961 64.085C 11.6078 64.085 10.3987 63.9641 8.94771 63.8431C 7.98039 62.634 7.13399 61.3039 6.28758 59.732ZM 9.91503 65.2941C 11.0033 65.415 11.9706 65.415 12.817 65.415C 16.2026 65.415 18.3791 64.8105 19.5882 63.4804C 20.5556 62.3922 21.0392 60.9412 21.0392 59.0065C 21.0392 58.1601 20.9183 57.3137 20.9183 56.5882C 23.3366 56.8301 25.8758 57.3137 27.2059 57.7974C 28.6569 58.281 29.866 59.1275 30.8333 60.0948C 29.7451 60.5784 28.6569 61.3039 27.6895 62.2712C 25.1503 65.1732 24.0621 69.768 24.6667 75.9346C 24.6667 75.9346 24.6667 76.4183 24.7876 77.1438C 18.9837 74.4837 13.7843 70.3726 9.91503 65.2941ZM 25.9967 77.6274C 25.8758 76.5392 25.8758 75.8137 25.8758 75.8137C 25.2712 70.0098 26.2386 65.6569 28.5359 63.1176C 29.5033 62.0294 30.5915 61.4248 31.5588 61.0621C 31.8007 61.5457 32.1634 62.0294 32.2843 62.5131C 34.219 67.2288 31.9216 74 29.6242 78.9575C 28.415 78.5948 27.2059 78.1111 25.9967 77.6274ZM 41.1111 80.6503C 37.6046 80.6503 34.098 80.1667 30.8333 79.3203C 33.2516 74.1209 35.549 67.1078 33.4935 62.0294C 33.2516 61.5457 33.0098 61.0621 32.768 60.6993C 33.4935 60.4575 34.098 60.4575 34.5817 60.4575C 34.7026 61.7876 35.1863 62.9967 36.0327 63.9641C 38.2091 66.6242 42.8039 67.9542 49.4543 67.9542C 50.1797 67.9542 50.9052 67.9542 51.5098 67.9542C 51.268 69.768 51.268 71.7026 51.3889 73.8791C 51.3889 73.8791 51.3889 76.0555 51.7516 79.3203C 48.2451 80.0457 44.7386 80.6503 41.1111 80.6503ZM 52.8399 78.8366C 52.598 75.6928 52.598 73.7582 52.598 73.7582C 52.4771 71.7026 52.598 69.8889 52.719 68.1961C 56.3464 70.8562 58.402 73.1536 59.732 74.9673C 59.9739 75.2092 60.0948 75.451 60.3366 75.6928C 57.7974 77.0229 55.3791 77.9902 52.8399 78.8366ZM 61.183 75.0882C 60.9412 74.8464 60.8203 74.4837 60.5784 74.2418C 59.2484 72.4281 57.3137 70.2516 53.9281 67.7124C 55.7418 67.5915 56.951 67.3497 56.951 67.3497C 57.4346 67.3497 67.7124 66.5033 72.7908 62.5131C 73.5163 62.0294 74.1209 61.183 74.4837 60.5784C 74.7255 60.2157 74.9673 59.732 75.0882 59.2484C 75.3301 59.3693 75.6928 59.6111 75.9346 59.732C 72.4281 66.1405 67.3497 71.4608 61.183 75.0882ZM 76.4183 58.6438C 76.0556 58.402 75.6928 58.1601 75.2092 58.0392C 75.6928 54.7745 74.4837 50.4216 73.1536 46.7941C 75.2092 47.3987 77.3856 47.8824 79.8039 48.0033C 79.1993 51.7516 77.9902 55.3791 76.4183 58.6438ZM 72.6699 45.4641C 71.5817 42.5621 70.4935 40.5065 70.3726 40.2647C 70.1307 39.6601 64.2059 25.5131 56.1046 25.0294C 55.6209 23.0948 55.0163 20.9183 54.4118 18.5C 55.2582 18.5 56.1046 18.6209 56.951 18.6209C 57.5556 18.6209 58.1601 18.6209 58.7647 18.6209C 62.3922 18.5 64.085 16.6863 64.085 16.5654C 65.1732 15.3562 65.7778 13.4216 66.1405 10.8824C 74.9673 18.1373 80.5294 29.0196 80.5294 41.3529C 80.5294 43.2876 80.4085 45.2222 80.1667 47.0359C 77.3856 46.7941 74.8464 46.1895 72.6699 45.4641Z"/>
<path id="path2_fill" d="M 18.7075 16.2238C 16.7234 18.7413 13.8889 20 10.3458 20C 6.94444 20 4.39342 18.8811 2.4093 16.6434C 0.85034 14.8252 0 12.5874 0 9.93007C 0 7.13287 0.992063 4.75524 2.97619 2.7972C 4.96032 0.979021 7.36962 2.08408e-09 10.3458 2.08408e-09C 14.0306 2.08408e-09 16.7234 1.25874 18.7075 3.91608L 17.1485 5.03497C 15.4478 2.93706 13.1803 1.81818 10.3458 1.81818C 8.78685 1.81818 7.51134 2.23776 6.23583 2.93706C 4.96032 3.63636 3.82653 4.61539 3.11791 5.87413C 2.4093 7.13287 1.98413 8.53147 1.98413 10.0699C 1.98413 12.4476 2.83447 14.4056 4.39342 15.9441C 5.95238 17.4825 7.93651 18.1818 10.3458 18.1818C 13.0385 18.1818 15.3061 17.2028 17.1485 15.1049L 18.7075 16.2238Z"/>
<path id="path3_fill" d="M 1.8424 18.8811L 2.70316e-07 18.8811L 2.70316e-07 0L 1.8424 0L 1.8424 18.8811Z"/>
<path id="path4_fill" d="M 10.4875 1.81818L 6.23583 1.81818L 6.23583 18.8811L 4.2517 18.8811L 4.2517 1.81818L 0 1.81818L 0 0L 10.4875 0L 10.4875 1.81818Z"/>
<path id="path5_fill" d="M 14.1723 0.13986L 8.07823 10.0699L 8.07823 19.021L 6.23583 19.021L 6.23583 9.93007L 1.08126e-06 8.33631e-09L 2.26757 8.33631e-09L 7.22789 7.83217L 12.0465 8.33631e-09L 14.1723 8.33631e-09L 14.1723 0.13986Z"/>
<path id="path6_fill" d="M 9.2372 9.2435L 1.90178 9.2435L 1.90178 18.0851L 0 18.0851L 0 3.99243e-09L 9.2372 3.99243e-09L 9.2372 1.74153L 1.90178 1.74153L 1.90178 7.36801L 9.2372 7.36801L 9.2372 9.2435Z"/>
<path id="path7_fill" d="M 19.4253 9.37746C 19.4253 12.0567 18.4744 14.3341 16.5726 16.0756C 14.6708 17.9511 12.4974 18.8889 9.78056 18.8889C 7.06374 18.8889 4.75444 17.9511 2.85267 16.2096C 0.950889 14.3341 0 12.1907 0 9.51143C 0 7.7699 0.407523 6.16233 1.22257 4.68873C 2.03762 3.21513 3.26019 2.00946 4.75444 1.20567C 6.24869 0.401891 7.87879 0 9.50888 0C 12.2257 0 14.535 0.937746 16.4368 2.67928C 18.4744 4.28684 19.4253 6.56422 19.4253 9.37746ZM 17.5235 9.37746C 17.5235 6.43026 16.1651 4.15288 13.5841 2.67928C 12.3615 2.00946 11.0031 1.60757 9.64472 1.60757C 8.28631 1.60757 6.9279 2.00946 5.70533 2.67928C 4.48276 3.34909 3.53187 4.28684 2.85267 5.49251C 2.17346 6.69819 1.76594 8.03782 1.76594 9.37746C 1.76594 11.5209 2.44514 13.2624 3.93939 14.87C 5.43365 16.3436 7.19958 17.1474 9.37304 17.1474C 10.7315 17.1474 12.0899 16.8794 13.3124 16.0756C 14.535 15.4058 15.4859 14.4681 16.1651 13.2624C 17.116 12.0567 17.5235 10.7171 17.5235 9.37746Z"/>
<path id="path8_fill" d="M 11.8182 18.0851L 9.50888 18.0851L 2.85266 9.64539L 1.76593 9.64539L 1.76593 18.0851L 0 18.0851L 0 3.99243e-09L 3.66771 3.99243e-09C 5.70533 3.99243e-09 7.06374 0.133964 7.74295 0.267927C 8.82968 0.535855 9.78057 1.07171 10.4598 1.87549C 11.139 2.67927 11.4107 3.61702 11.4107 4.82269C 11.4107 6.83215 10.4598 8.30575 8.69383 9.10953C 7.87879 9.51143 6.65622 9.64539 5.02612 9.64539L 11.8182 18.0851ZM 9.64472 4.82269C 9.64472 4.28684 9.50888 3.61702 9.10136 3.21513C 8.82968 2.67927 8.28631 2.41135 7.74295 2.14342C 7.19958 1.87549 6.24869 1.87549 5.02612 1.87549L 1.76593 1.87549L 1.76593 8.03782L 4.89028 8.03782C 6.9279 8.03782 8.28631 7.63593 8.96552 6.56422C 9.50888 6.02837 9.64472 5.49251 9.64472 4.82269Z"/>
<path id="path9_fill" d="M 12.0209 10.8511C 12.0209 12.3247 12.0899 13.5303 11.8182 14.4681C 11.4107 15.6738 10.7314 16.6115 9.78056 17.4153C 8.82967 18.2191 7.6071 18.487 6.24869 18.487C 4.89028 18.487 3.66771 18.2191 2.58098 17.5493C 1.49425 16.8794 0.679202 15.9417 0.271678 14.736C -4.13921e-06 14.0662 3.84294e-15 12.7266 3.84294e-15 10.985L 3.84294e-15 0L 1.76593 0L 1.76593 10.8511C 1.76593 12.0567 1.76593 12.8605 1.90177 13.2624C 2.03761 14.736 2.85266 15.6738 4.07524 16.2096C 4.75444 16.4775 5.43365 16.7455 6.11285 16.7455C 7.47127 16.7455 8.42215 16.2096 9.2372 15.2719C 9.64472 14.87 9.9164 14.3341 10.0522 13.6643C 10.1881 13.2624 10.1881 12.3247 10.1881 10.8511L 10.1881 0L 11.954 0L 12.0209 10.8511Z"/>
<path id="path10_fill" d="M 20.6479 18.0851L 18.8819 18.0851L 17.116 5.09062L 10.5956 18.0851L 10.0522 18.0851L 3.53187 5.09062L 1.76594 18.0851L -2.07277e-06 18.0851L 2.58098 3.99243e-09L 2.85267 3.99243e-09L 10.3239 14.87L 17.6593 3.99243e-09L 17.931 3.99243e-09L 20.6479 18.0851Z"/>
</defs>
</svg>
