<svg width="92" height="42" viewBox="0 0 92 42" version="1.1" xmlns="http://www.w3.org/2000/svg" xmlns:xlink="http://www.w3.org/1999/xlink">
<title>LOGO</title>
<desc>Created using Figma</desc>
<g id="Canvas" transform="translate(-18473 -640)">

<g id="contacts 1" clip-path="url(#clip-0)">
<g id="Group">

<g id="LOGO" mask="url(#mask0_alpha)">
<g id="Logo">
<g id="Shape">
<use xlink:href="#path3_fill" transform="translate(18473 640)"/>
</g>
</g>
<g id="Group">
<g id="City">
<g id="Vector">
<use xlink:href="#path4_fill" transform="translate(18520.7 651.919)"/>
</g>
<g id="Vector">
<use xlink:href="#path5_fill" transform="translate(18532.1 652.205)"/>
</g>
<g id="Vector">
<use xlink:href="#path6_fill" transform="translate(18534.8 652.205)"/>
</g>
<g id="Vector">
<use xlink:href="#path7_fill" transform="translate(18541.9 652.133)"/>
</g>
</g>
<g id="Forum">
<g id="Vector">
<use xlink:href="#path8_fill" transform="translate(18520.7 640.137)"/>
</g>
<g id="Vector">
<use xlink:href="#path9_fill" transform="translate(18526.6 640)"/>
</g>
<g id="Vector">
<use xlink:href="#path10_fill" transform="translate(18538.4 640.137)"/>
</g>
<g id="Vector">
<use xlink:href="#path11_fill" transform="translate(18546.3 640.205)"/>
</g>
<g id="Vector">
<use xlink:href="#path12_fill" transform="translate(18554.4 640.137)"/>
</g>
</g>
</g>
</g>
</g>
</g>
</g>
<defs>
<pattern id="pattern0" patternUnits="objectBoundingBox" patternContentUnits="objectBoundingBox" width="1" height="1">
<use xlink:href="#image0" transform="matrix(0.000520833 0 0 0.000909091 0 0)"/>
</pattern>
<pattern id="pattern1" patternUnits="objectBoundingBox" patternContentUnits="objectBoundingBox" width="1" height="1">
<use xlink:href="#image1" transform="matrix(0.000542005 0 0 0.00113023 0 -0.000127544)"/>
</pattern>
<path id="path0_fill" d="M 0 0L 1920 0L 1920 1100L 0 1100L 0 0Z"/>
<path id="path1_fill" d="M 0 0L 2592 0L 2592 1243L 0 1243L 0 0Z"/>
<path id="path2_fill" d="M 54 26.6041C 54 41.2971 27 84 27 84C 27 84 0 41.2971 0 26.6041C 0 11.9111 12.0883 0 27 0C 41.9117 0 54 11.9111 54 26.6041Z"/>
<path id="path3_fill" d="M 21.0123 7.36293e-09C 9.39375 7.36293e-09 0 9.45 0 21C 0 32.6118 9.45555 42 21.0123 42C 32.6309 42 42.0247 32.55 42.0247 21C 42.0247 9.45 32.5691 7.36293e-09 21.0123 7.36293e-09ZM 33.2489 5.06471C 33.1253 6.48529 32.8781 7.41176 32.3219 8.02941C 32.3219 8.09118 31.5803 8.83235 30.0353 8.89412C 29.7881 8.89412 29.4791 8.89412 29.1701 8.89412C 28.6757 8.89412 28.2431 8.89412 27.7487 8.83235C 27.1924 6.42353 26.6362 3.82941 26.389 1.60588C 28.8611 2.34706 31.2095 3.52059 33.2489 5.06471ZM 37.884 29.4C 36.339 28.6588 34.8558 28.1029 33.3726 27.8559C 33.3726 27.8559 33.0635 27.7941 32.6309 27.7941C 31.6421 27.7941 29.8499 28.0412 28.3667 29.5853C 27.3779 30.6353 26.7598 32.0559 26.4508 33.8471C 26.08 33.6 25.7092 33.3529 25.2766 33.1059L 25.153 33.0441C 23.5462 32.1176 21.1359 30.6971 18.1695 30.2647C 18.1695 30.0794 18.1695 29.8941 18.2313 29.7088C 18.7875 26.8059 19.5909 24.6441 20.3943 22.9765C 20.7651 23.0382 21.0741 23.1 21.3832 23.1C 25.771 23.1 26.08 15.0088 26.1418 14.7C 26.1418 14.6382 26.1418 14.4529 26.2036 14.1441C 26.8834 13.65 27.5015 13.4029 28.1813 13.3412C 28.4285 14.2676 28.6757 15.0706 28.8611 15.6882C 29.1083 16.4912 29.2937 17.1706 29.4791 17.7265C 30.4061 20.1353 32.0129 21.8029 34.2996 22.7294C 34.485 22.7912 34.7322 22.9147 34.9794 22.9765C 35.4738 23.1618 36.03 23.4088 36.7098 23.6559C 37.3896 25.4471 38.0694 27.7324 37.884 29.4ZM 16.3155 30.45C 15.7593 29.7706 15.0176 29.2765 14.0906 28.9676C 13.2872 28.6588 11.9276 28.4118 10.6298 28.2882C 10.4444 25.5706 10.1354 23.7794 9.51736 21.1853C 9.27015 20.0735 8.77574 18.9 8.09593 17.7882C 9.14655 16.9853 10.0118 15.9971 10.7534 14.8853C 12.0512 16.6147 13.2254 17.7265 14.2142 18.6529L 14.276 18.7147C 17.1807 21.4324 19.4673 22.5441 19.5909 22.6059C 19.7145 22.6676 19.8381 22.7294 19.9617 22.7294C 19.1583 24.4588 18.3549 26.6206 17.7987 29.5235C 17.7369 29.7706 17.7369 29.9559 17.7369 30.1412C 17.3043 30.2647 16.8717 30.3265 16.3155 30.45ZM 13.7198 7.47353C 14.6468 7.10294 15.4503 6.85588 16.0683 6.73235C 17.1189 7.22647 18.5403 7.72059 20.4561 8.15294C 20.5797 8.21471 22.9282 8.77059 25.5238 9.20294C 25.771 10.8706 25.7092 12.7853 25.6474 13.8353C 25.462 13.9588 25.2766 14.1441 25.153 14.3294C 25.0912 14.4529 22.9282 16.6765 20.7651 21L 20.7651 21.0618C 20.5797 21.4324 20.3325 21.8647 20.1471 22.3588C 20.0235 22.2971 19.8999 22.2971 19.7763 22.2353C 19.7763 22.2353 17.4279 21.0618 14.6468 18.4676L 14.585 18.4059C 13.5962 17.3559 12.3602 16.1824 11.0624 14.4529C 12.422 12.2912 13.2254 9.82059 13.7198 7.47353ZM 10.6916 13.8971C 10.4444 13.5265 10.1354 13.0941 9.82636 12.6C 9.33195 11.7971 9.27015 11.0559 9.57916 10.3765C 10.0736 9.26471 11.495 8.33823 12.9782 7.72059C 12.5456 9.82059 11.804 12.0441 10.6916 13.8971ZM 16.9953 6.48529C 17.3661 6.36176 19.4673 5.80588 21.5068 5.80588C 22.3102 5.80588 23.0518 5.92941 23.608 6.11471C 23.8552 6.17647 24.1642 6.36176 24.3496 6.54706C 24.844 6.97941 25.2148 7.72059 25.4002 8.64706C 22.8664 8.27647 20.6415 7.65882 20.5797 7.65882C 19.0965 7.22647 17.9223 6.85588 16.9953 6.48529ZM 25.5856 14.6382C 25.5856 14.9471 25.2148 22.4824 21.445 22.4824C 21.1978 22.4824 20.9505 22.4206 20.7033 22.3588C 20.8887 21.9265 21.0741 21.5559 21.2596 21.1853L 21.2596 21.1235C 23.3608 16.9853 25.5238 14.7 25.5856 14.6382C 25.5856 14.7 25.5856 14.7 25.5856 14.6382ZM 37.7604 29.9559C 37.6986 30.2029 37.6368 30.45 37.5132 30.6353C 37.3896 30.8824 37.0806 31.2529 36.8334 31.4382C 34.3614 33.4147 29.1083 33.7853 28.9847 33.7853C 28.9847 33.7853 28.1813 33.9088 27.007 33.9706C 27.3161 32.2412 27.8723 30.8824 28.7993 29.8941C 30.0971 28.5353 31.7657 28.2882 32.6309 28.2882C 33.0017 28.2882 33.2489 28.35 33.2489 28.35C 34.7322 28.6588 36.2154 29.2147 37.7604 29.9559ZM 25.771 34.0941C 25.5856 34.0941 25.462 34.0941 25.2766 34.0941C 23.0518 34.0941 20.1471 33.7853 18.8493 32.3029C 18.5403 31.8706 18.2931 31.4382 18.2313 30.8824C 21.0123 31.3147 23.2372 32.6118 24.844 33.5382L 24.9676 33.6C 25.2766 33.7853 25.5238 33.9088 25.771 34.0941ZM 35.2266 22.4206C 34.9794 22.2971 34.794 22.2353 34.5468 22.1118C 32.4455 21.2471 30.9005 19.6412 30.0353 17.4176C 29.8499 16.8618 29.6027 16.2441 29.4173 15.4412C 29.2319 14.8853 29.0465 14.1441 28.7993 13.2794C 32.5073 13.7735 35.3502 20.6294 35.412 20.7529C 35.412 20.7529 35.8446 21.6794 36.339 22.9147C 35.9682 22.7912 35.5974 22.6059 35.2266 22.4206ZM 26.2654 13.4029C 26.3272 12.2912 26.3272 10.7471 26.1418 9.26471C 26.5126 9.32647 26.8834 9.32647 27.2542 9.38824C 27.5633 10.5618 27.8105 11.7353 28.1195 12.7853C 27.5015 12.7853 26.8834 13.0324 26.2654 13.4029ZM 14.4614 1.97647C 16.5009 1.29706 18.7257 0.864706 21.0123 0.864706C 22.6192 0.864706 24.226 1.05 25.7092 1.42059C 25.9564 3.64412 26.5126 6.3 27.0688 8.77059C 26.698 8.70882 26.389 8.70882 26.0182 8.64706C 25.771 7.53529 25.4002 6.54706 24.7204 5.99118C 24.4732 5.80588 24.1024 5.55882 23.7934 5.49706C 23.1754 5.31176 22.4338 5.18824 21.5068 5.18824C 19.2201 5.18824 16.8717 5.86765 16.7481 5.86765C 16.6863 5.86765 16.4391 5.92941 16.0683 6.05294C 15.0176 5.55882 14.3996 5.12647 14.0906 4.81765C 14.276 3.76765 14.3996 2.84118 14.4614 1.97647ZM 15.2649 6.3C 14.8322 6.42353 14.3378 6.60882 13.8434 6.79412C 13.9052 6.36176 13.967 5.92941 14.0906 5.55882C 14.3378 5.74412 14.7704 5.99118 15.2649 6.3ZM 13.8434 2.22353C 13.7816 2.84118 13.7198 3.52059 13.658 4.26176L 13.5344 4.13824C 13.2872 3.76765 13.04 3.27353 12.8546 2.65588C 13.1636 2.47059 13.4726 2.34706 13.8434 2.22353ZM 12.2984 2.84118C 12.4838 3.45882 12.731 4.01471 13.04 4.44706L 13.349 4.87941C 13.349 4.87941 13.4108 4.94118 13.5344 5.06471C 13.4726 5.68235 13.349 6.36176 13.1636 7.04118C 11.495 7.72059 9.70276 8.77059 9.08475 10.1912C 8.71394 11.0559 8.77574 11.9824 9.33195 12.9706C 9.64096 13.5265 10.0118 14.0206 10.3208 14.5147C 9.57916 15.6265 8.77574 16.6147 7.72513 17.4176C 6.48911 15.5029 4.63508 13.8353 2.41024 13.2176C 4.38787 8.64706 7.91053 5.00294 12.2984 2.84118ZM 2.22484 13.65C 4.38787 14.2676 6.1183 15.8118 7.29252 17.6647C 5.74749 18.7147 3.89346 19.3324 1.60683 19.3324L 1.48322 19.3324C 1.23602 19.3324 1.05062 19.3324 0.865214 19.3324C 1.11242 17.3559 1.54503 15.4412 2.22484 13.65ZM 0.865214 21.0618C 0.865214 20.6912 0.865214 20.3206 0.927015 19.95C 1.11242 19.95 1.35962 19.95 1.60683 19.95L 1.73043 19.95C 4.14067 19.95 6.1183 19.2706 7.72513 18.2206C 8.34314 19.2706 8.77574 20.3824 9.02295 21.3706C 9.64096 23.9647 9.94996 25.6941 10.1354 28.2882C 9.82636 28.2882 9.57916 28.2882 9.33195 28.2882C 9.14655 28.2882 8.96115 28.2882 8.77574 28.2882C 6.1801 28.4735 4.26427 29.0294 3.02825 30.0176C 1.60683 27.3 0.865214 24.2735 0.865214 21.0618ZM 3.21365 30.5118C 4.32607 29.5235 6.1801 28.9676 8.71394 28.7824C 8.89935 28.7824 9.02295 28.7824 9.20835 28.7824C 9.45556 28.7824 9.76456 28.7824 10.0736 28.7824C 10.0736 29.2147 10.1354 29.6471 10.1354 30.0794C 10.1354 30.8824 9.94996 31.5 9.57916 31.9324C 9.02295 32.4882 8.03413 32.7353 6.48911 32.7353C 5.9329 32.7353 5.31489 32.6735 4.57328 32.6118C 4.07887 31.9941 3.64626 31.3147 3.21365 30.5118ZM 5.06768 33.3529C 5.62389 33.4147 6.1183 33.4147 6.55091 33.4147C 8.28134 33.4147 9.39375 33.1059 10.0118 32.4265C 10.5062 31.8706 10.7534 31.1294 10.7534 30.1412C 10.7534 29.7088 10.6916 29.2765 10.6916 28.9059C 11.9276 29.0294 13.2254 29.2765 13.9052 29.5235C 14.6468 29.7706 15.2649 30.2029 15.7593 30.6971C 15.2031 30.9441 14.6468 31.3147 14.1524 31.8088C 12.8546 33.2912 12.2984 35.6382 12.6074 38.7882C 12.6074 38.7882 12.6074 39.0353 12.6692 39.4059C 9.70276 38.0471 7.04532 35.9471 5.06768 33.3529ZM 13.2872 39.6529C 13.2254 39.0971 13.2254 38.7265 13.2254 38.7265C 12.9164 35.7618 13.4108 33.5382 14.585 32.2412C 15.0794 31.6853 15.6357 31.3765 16.1301 31.1912C 16.2537 31.4382 16.4391 31.6853 16.5009 31.9324C 17.4897 34.3412 16.3155 37.8 15.1412 40.3324C 14.5232 40.1471 13.9052 39.9 13.2872 39.6529ZM 21.0123 41.1971C 19.2201 41.1971 17.4279 40.95 15.7593 40.5176C 16.9953 37.8618 18.1695 34.2794 17.1189 31.6853C 16.9953 31.4382 16.8717 31.1912 16.7481 31.0059C 17.1189 30.8824 17.4279 30.8824 17.6751 30.8824C 17.7369 31.5618 17.9841 32.1794 18.4167 32.6735C 19.5291 34.0324 21.8776 34.7118 25.2766 34.7118C 25.6474 34.7118 26.0182 34.7118 26.3272 34.7118C 26.2036 35.6382 26.2036 36.6265 26.2654 37.7382C 26.2654 37.7382 26.2654 38.85 26.4508 40.5176C 24.6586 40.8882 22.8664 41.1971 21.0123 41.1971ZM 27.007 40.2706C 26.8834 38.6647 26.8834 37.6765 26.8834 37.6765C 26.8216 36.6265 26.8834 35.7 26.9452 34.8353C 28.7993 36.1941 29.8499 37.3676 30.5297 38.2941C 30.6533 38.4176 30.7151 38.5412 30.8387 38.6647C 29.5409 39.3441 28.3049 39.8382 27.007 40.2706ZM 31.2713 38.3559C 31.1477 38.2324 31.0859 38.0471 30.9623 37.9235C 30.2825 36.9971 29.2937 35.8853 27.5633 34.5882C 28.4903 34.5265 29.1083 34.4029 29.1083 34.4029C 29.3555 34.4029 34.6086 33.9706 37.2042 31.9324C 37.575 31.6853 37.884 31.2529 38.0694 30.9441C 38.193 30.7588 38.3166 30.5118 38.3784 30.2647C 38.502 30.3265 38.6874 30.45 38.811 30.5118C 37.0188 33.7853 34.4232 36.5029 31.2713 38.3559ZM 39.0582 29.9559C 38.8728 29.8324 38.6874 29.7088 38.4402 29.6471C 38.6874 27.9794 38.0694 25.7559 37.3896 23.9029C 38.4402 24.2118 39.5527 24.4588 40.7887 24.5206C 40.4797 26.4353 39.8617 28.2882 39.0582 29.9559ZM 37.1424 23.2235C 36.5862 21.7412 36.03 20.6912 35.9682 20.5676C 35.8446 20.2588 32.8163 13.0324 28.6757 12.7853C 28.4285 11.7971 28.1195 10.6853 27.8105 9.45C 28.2431 9.45 28.6757 9.51177 29.1083 9.51177C 29.4173 9.51177 29.7263 9.51177 30.0353 9.51177C 31.8893 9.45 32.7545 8.52353 32.7545 8.46176C 33.3107 7.84412 33.6198 6.85588 33.8052 5.55882C 38.3166 9.26471 41.1595 14.8235 41.1595 21.1235C 41.1595 22.1118 41.0977 23.1 40.9741 24.0265C 39.5527 23.9029 38.2548 23.5941 37.1424 23.2235Z"/>
<path id="path4_fill" d="M 9.5616 8.28728C 8.54749 9.57324 7.09877 10.2162 5.28786 10.2162C 3.54938 10.2162 2.24553 9.64468 1.23142 8.50161C 0.434618 7.57286 0 6.42979 0 5.07239C 0 3.64355 0.507055 2.42903 1.52116 1.42884C 2.53527 0.500094 3.76669 1.06457e-09 5.28786 1.06457e-09C 7.1712 1.06457e-09 8.54749 0.642979 9.5616 2.00038L 8.7648 2.57191C 7.89557 1.50028 6.73658 0.928747 5.28786 0.928747C 4.49106 0.928747 3.83913 1.14307 3.1872 1.50028C 2.53527 1.85749 1.95578 2.35759 1.5936 3.00057C 1.23142 3.64355 1.01411 4.35797 1.01411 5.14383C 1.01411 6.35834 1.44873 7.35853 2.24553 8.1444C 3.04233 8.93026 4.05644 9.28747 5.28786 9.28747C 6.66415 9.28747 7.82313 8.78737 8.7648 7.71574L 9.5616 8.28728Z"/>
<path id="path5_fill" d="M 0.941673 9.64468L 1.38161e-07 9.64468L 1.38161e-07 0L 0.941673 0L 0.941673 9.64468Z"/>
<path id="path6_fill" d="M 5.36029 0.928747L 3.1872 0.928747L 3.1872 9.64468L 2.17309 9.64468L 2.17309 0.928747L 0 0.928747L 0 0L 5.36029 0L 5.36029 0.928747Z"/>
<path id="path7_fill" d="M 7.24364 0.0714421L 4.12887 5.14383L 4.12887 9.71612L 3.1872 9.71612L 3.1872 5.07239L 5.52646e-07 4.25828e-09L 1.15898 4.25828e-09L 3.69425 4.00076L 6.15709 4.25828e-09L 7.24364 4.25828e-09L 7.24364 0.0714421Z"/>
<path id="path8_fill" d="M 4.72124 4.72168L 0.972019 4.72168L 0.972019 9.23807L 0 9.23807L 0 2.03938e-09L 4.72124 2.03938e-09L 4.72124 0.889592L 0.972019 0.889592L 0.972019 3.76366L 4.72124 3.76366L 4.72124 4.72168Z"/>
<path id="path9_fill" d="M 9.92848 4.79011C 9.92848 6.15871 9.44247 7.32202 8.47045 8.21162C 7.49843 9.16964 6.38755 9.64865 4.99896 9.64865C 3.61036 9.64865 2.43005 9.16964 1.45803 8.28005C 0.48601 7.32202 0 6.22714 0 4.85854C 0 3.96895 0.20829 3.14779 0.624869 2.39505C 1.04145 1.64232 1.66632 1.02645 2.43005 0.615871C 3.19378 0.20529 4.02694 0 4.8601 0C 6.24869 0 7.429 0.479011 8.40102 1.3686C 9.44247 2.18976 9.92848 3.35308 9.92848 4.79011ZM 8.95646 4.79011C 8.95646 3.28465 8.26216 2.12133 6.94299 1.3686C 6.31812 1.02645 5.62383 0.821162 4.92953 0.821162C 4.23523 0.821162 3.54093 1.02645 2.91606 1.3686C 2.29119 1.71075 1.80518 2.18976 1.45803 2.80564C 1.11088 3.42151 0.902589 4.10581 0.902589 4.79011C 0.902589 5.88499 1.24974 6.77458 2.01347 7.59575C 2.7772 8.34848 3.67979 8.75906 4.79067 8.75906C 5.48496 8.75906 6.17926 8.6222 6.80413 8.21162C 7.429 7.86947 7.91501 7.39045 8.26216 6.77458C 8.74817 6.15871 8.95646 5.47441 8.95646 4.79011Z"/>
<path id="path10_fill" d="M 6.0404 9.23807L 4.8601 9.23807L 1.45803 4.92697L 0.902589 4.92697L 0.902589 9.23807L 0 9.23807L 0 2.03938e-09L 1.87461 2.03938e-09C 2.91606 2.03938e-09 3.61036 0.0684301 3.95751 0.13686C 4.51295 0.273721 4.99896 0.547441 5.34611 0.958022C 5.69325 1.3686 5.83212 1.84761 5.83212 2.46348C 5.83212 3.48994 5.3461 4.24267 4.44352 4.65325C 4.02694 4.85854 3.40207 4.92697 2.56891 4.92697L 6.0404 9.23807ZM 4.92952 2.46348C 4.92952 2.18976 4.8601 1.84761 4.65181 1.64232C 4.51295 1.3686 4.23523 1.23174 3.95751 1.09488C 3.67979 0.958022 3.19378 0.958022 2.56891 0.958022L 0.902589 0.958022L 0.902589 4.10581L 2.49948 4.10581C 3.54093 4.10581 4.23522 3.90052 4.58237 3.35308C 4.86009 3.07936 4.92952 2.80563 4.92952 2.46348Z"/>
<path id="path11_fill" d="M 6.14403 5.54284C 6.14403 6.29557 6.17926 6.91144 6.0404 7.39045C 5.83211 8.00633 5.48496 8.48534 4.99895 8.89592C 4.51294 9.3065 3.88808 9.44336 3.19378 9.44336C 2.49948 9.44336 1.87461 9.3065 1.31917 8.96435C 0.763728 8.6222 0.347148 8.14319 0.138858 7.52731C -2.1156e-06 7.18516 1.96417e-15 6.50086 1.96417e-15 5.61127L 1.96417e-15 0L 0.902589 0L 0.902589 5.54284C 0.902589 6.15871 0.902588 6.56929 0.972018 6.77458C 1.04145 7.52731 1.45803 8.00632 2.0829 8.28005C 2.43005 8.41691 2.7772 8.55377 3.12435 8.55377C 3.81865 8.55377 4.30466 8.28005 4.72124 7.80103C 4.92952 7.59574 5.06838 7.32202 5.13781 6.97987C 5.20724 6.77458 5.20725 6.29557 5.20725 5.54284L 5.20725 0L 6.10983 0L 6.14403 5.54284Z"/>

</defs>
</svg>
